REM DIRINDEX 1\6,1\2\7,1\2\8,1\2\9,1\3\10,1\3\11,1\4\12,1\4\13,1\4\14,1\5\15,1\5\16,1\5\17
REM DIRNAME cjc040,folder01,folder02,folder03,folder04,folder05,folder06,folder07,folder08,folder09,folder10,folder11,folder12,folder13,folder14,folder15,folder16
TITLE ""
FILE "P2Q_t_0947-0964.mp3" MP3
  TRACK 01 AUDIO
    TITLE "10:cjc040_3549"
    INDEX 01 00:00:00
  TRACK 02 AUDIO
    TITLE "0:"
    INDEX 01 00:01:07
  TRACK 03 AUDIO
    TITLE "11:cjc040_3550"
    INDEX 01 00:01:56
  TRACK 04 AUDIO
    TITLE "0:"
    INDEX 01 00:02:67
  TRACK 05 AUDIO
    TITLE "10:cjc040_3551"
    INDEX 01 00:03:47
  TRACK 06 AUDIO
    TITLE "0:"
    INDEX 01 00:05:14
  TRACK 07 AUDIO
    TITLE "11:cjc040_3552"
    INDEX 01 00:05:63
  TRACK 08 AUDIO
    TITLE "0:"
    INDEX 01 00:07:56
  TRACK 09 AUDIO
    TITLE "10:cjc040_3553"
    INDEX 01 00:08:32
  TRACK 10 AUDIO
    TITLE "0:"
    INDEX 01 00:09:51
  TRACK 11 AUDIO
    TITLE "11:cjc040_3554"
    INDEX 01 00:10:35
  TRACK 12 AUDIO
    TITLE "0:"
    INDEX 01 00:12:36
  TRACK 13 AUDIO
    TITLE "10:cjc040_3555"
    INDEX 01 00:13:14
  TRACK 14 AUDIO
    TITLE "0:"
    INDEX 01 00:14:37
  TRACK 15 AUDIO
    TITLE "11:cjc040_3556"
    INDEX 01 00:15:17
  TRACK 16 AUDIO
    TITLE "0:"
    INDEX 01 00:17:29
  TRACK 17 AUDIO
    TITLE "10:cjc040_3557"
    INDEX 01 00:18:03
  TRACK 18 AUDIO
    TITLE "0:"
    INDEX 01 00:19:09
  TRACK 19 AUDIO
    TITLE "11:cjc040_3558"
    INDEX 01 00:19:69
  TRACK 20 AUDIO
    TITLE "0:"
    INDEX 01 00:21:72
  TRACK 21 AUDIO
    TITLE "10:cjc040_3559"
    INDEX 01 00:22:52
  TRACK 22 AUDIO
    TITLE "0:"
    INDEX 01 00:23:67
  TRACK 23 AUDIO
    TITLE "11:cjc040_3560"
    INDEX 01 00:24:57
  TRACK 24 AUDIO
    TITLE "0:"
    INDEX 01 00:26:01
  TRACK 25 AUDIO
    TITLE "10:cjc040_3561"
    INDEX 01 00:26:64
  TRACK 26 AUDIO
    TITLE "0:"
    INDEX 01 00:27:67
  TRACK 27 AUDIO
    TITLE "11:cjc040_3562"
    INDEX 01 00:28:43
  TRACK 28 AUDIO
    TITLE "0:"
    INDEX 01 00:32:37
  TRACK 29 AUDIO
    TITLE "10:cjc040_3563"
    INDEX 01 00:33:17
  TRACK 30 AUDIO
    TITLE "0:"
    INDEX 01 00:34:24
  TRACK 31 AUDIO
    TITLE "11:cjc040_3564"
    INDEX 01 00:35:12
  TRACK 32 AUDIO
    TITLE "0:"
    INDEX 01 00:36:70
  TRACK 33 AUDIO
    TITLE "10:cjc040_3565"
    INDEX 01 00:37:54
  TRACK 34 AUDIO
    TITLE "0:"
    INDEX 01 00:38:69
  TRACK 35 AUDIO
    TITLE "11:cjc040_3566"
    INDEX 01 00:39:51
  TRACK 36 AUDIO
    TITLE "0:"
    INDEX 01 00:41:59
  TRACK 37 AUDIO
    TITLE "10:cjc040_3567"
    INDEX 01 00:42:41
  TRACK 38 AUDIO
    TITLE "0:"
    INDEX 01 00:43:48
  TRACK 39 AUDIO
    TITLE "11:cjc040_3568"
    INDEX 01 00:44:36
  TRACK 40 AUDIO
    TITLE "0:"
    INDEX 01 00:46:37
  TRACK 41 AUDIO
    TITLE "10:cjc040_3569"
    INDEX 01 00:47:13
  TRACK 42 AUDIO
    TITLE "0:"
    INDEX 01 00:48:30
  TRACK 43 AUDIO
    TITLE "11:cjc040_3570"
    INDEX 01 00:49:14
  TRACK 44 AUDIO
    TITLE "0:"
    INDEX 01 00:51:32
  TRACK 45 AUDIO
    TITLE "10:cjc040_3571"
    INDEX 01 00:52:10
  TRACK 46 AUDIO
    TITLE "0:"
    INDEX 01 00:53:25
  TRACK 47 AUDIO
    TITLE "11:cjc040_3572"
    INDEX 01 00:53:74
  TRACK 48 AUDIO
    TITLE "0:"
    INDEX 01 00:57:01
  TRACK 49 AUDIO
    TITLE "10:cjc040_3573"
    INDEX 01 00:57:50
  TRACK 50 AUDIO
    TITLE "0:"
    INDEX 01 00:58:67
  TRACK 51 AUDIO
    TITLE "11:cjc040_3574"
    INDEX 01 00:59:45
  TRACK 52 AUDIO
    TITLE "0:"
    INDEX 01 01:02:22
  TRACK 53 AUDIO
    TITLE "10:cjc040_3575"
    INDEX 01 01:03:04
  TRACK 54 AUDIO
    TITLE "0:"
    INDEX 01 01:04:37
  TRACK 55 AUDIO
    TITLE "11:cjc040_3576"
    INDEX 01 01:05:15
  TRACK 56 AUDIO
    TITLE "0:"
    INDEX 01 01:06:18
  TRACK 57 AUDIO
    TITLE "10:cjc040_3577"
    INDEX 01 01:06:69
  TRACK 58 AUDIO
    TITLE "0:"
    INDEX 01 01:08:15
  TRACK 59 AUDIO
    TITLE "11:cjc040_3578"
    INDEX 01 01:08:70
  TRACK 60 AUDIO
    TITLE "0:"
    INDEX 01 01:12:13
  TRACK 61 AUDIO
    TITLE "10:cjc040_3579"
    INDEX 01 01:12:66
  TRACK 62 AUDIO
    TITLE "0:"
    INDEX 01 01:14:10
  TRACK 63 AUDIO
    TITLE "11:cjc040_3580"
    INDEX 01 01:14:57
  TRACK 64 AUDIO
    TITLE "0:"
    INDEX 01 01:16:52
  TRACK 65 AUDIO
    TITLE "10:cjc040_3581"
    INDEX 01 01:17:30
  TRACK 66 AUDIO
    TITLE "0:"
    INDEX 01 01:18:31
  TRACK 67 AUDIO
    TITLE "11:cjc040_3582"
    INDEX 01 01:19:13
  TRACK 68 AUDIO
    TITLE "0:"
    INDEX 01 01:20:28
  TRACK 69 AUDIO
    TITLE "10:cjc040_3583"
    INDEX 01 01:21:02
  TRACK 70 AUDIO
    TITLE "0:"
    INDEX 01 01:22:25
  TRACK 71 AUDIO
    TITLE "11:cjc040_3584"
    INDEX 01 01:23:07
  TRACK 72 AUDIO
    TITLE "0:"
    INDEX 01 01:25:51
